# File created by Blade
# Date/Time:  Tue Sep 30 19:33:40 2014
#---------------------------------------------------------
:version 1.10
:name HOM
:units
  mass 1.0
  length 1.000000
  angle deg
:documentation
     Acclaim Skeleton File
:root
   axis xyz
   order TX TY TZ RX RY RZ
   position 0.000000 0.000000 0.000000
   orientation 0 0 0
:bonedata
   begin
      id 1
      name Spine_dum
      direction 0.000000 1.000000 0.000000
      length 3.241213
      axis 0.0 0.0 0.0 xyz
   end
   begin
      id 2
      name LeftUpLeg_dum
      direction 1.000000 0.000000 0.000000
      length 3.434019
      axis 0.0 0.0 0.0 xyz
   end
   begin
      id 3
      name RightUpLeg_dum
      direction -1.000000 0.000000 0.000000
      length 3.434019
      axis 0.0 0.0 0.0 xyz
   end
   begin
      id 4
      name Spine
      direction 0.000000 1.000000 0.000000
      length 0.000000
      axis 0.0 0.0 0.0 xyz
      dof rx ry rz
   end
   begin
      id 5
      name Spine_dum1
      direction 0.000000 1.000000 0.000000
      length 18.382958
      axis 0.0 0.0 0.0 xyz
   end
   begin
      id 6
      name Spine_dum2
      direction 0.000000 1.000000 0.000000
      length 12.828261
      axis 0.0 0.0 0.0 xyz
   end
   begin
      id 7
      name Spine_dum3
      direction 0.000000 1.000000 0.000000
      length 12.828261
      axis 0.0 0.0 0.0 xyz
   end
   begin
      id 8
      name Head
      direction 0.000000 1.000000 0.000000
      length 4.527550
      axis 0.0 0.0 0.0 xyz
      dof rx ry rz
   end
   begin
      id 9
      name LeftShoulder
      direction 1.000000 0.000000 0.000000
      length 7.748055
      axis 0.0 0.0 -90.0 xyz
      dof rx ry rz
   end
   begin
      id 10
      name LeftArm
      direction 1.000000 0.000000 0.000000
      length 10.635614
      axis 0.0 0.0 -90.0 xyz
      dof rx ry rz
   end
   begin
      id 11
      name LeftForeArm
      direction 1.000000 0.000000 0.000000
      length 8.346755
      axis 0.0 0.0 -90.0 xyz
      dof ry rz rx
   end
   begin
      id 12
      name LeftHand
      direction 0.000000 0.000000 0.000000
      length 0.000000
      axis 0.0 0.0 -90.0 xyz
      dof rx ry rz
   end
   begin
      id 13
      name LeftHand_dum1
      direction 0.000000 0.000000 0.000000
      length 0.000000
      axis 0.0 0.0 -90.0 xyz
   end
   begin
      id 14
      name LeftHand_dum2
      direction 1.000000 0.000000 0.000000
      length 3.937000
      axis 0.0 0.0 -90.0 xyz
   end
   begin
      id 15
      name LeftHandThumb1
      direction 0.000000 0.000000 1.000000
      length 3.937000
      axis 0.0 0.0 -90.0 xyz
      dof rx rz ry
   end
   begin
      id 16
      name RightShoulder
      direction -1.000000 0.000000 0.000000
      length 7.748055
      axis 0.0 0.0 90.0 xyz
      dof rx ry rz
   end
   begin
      id 17
      name RightArm
      direction -1.000000 0.000000 0.000000
      length 10.635614
      axis 0.0 0.0 90.0 xyz
      dof rx ry rz
   end
   begin
      id 18
      name RightForeArm
      direction -1.000000 0.000000 0.000000
      length 8.346755
      axis 0.0 0.0 90.0 xyz
      dof ry rz rx
   end
   begin
      id 19
      name RightHand
      direction 0.000000 0.000000 0.000000
      length 0.000000
      axis 0.0 0.0 90.0 xyz
      dof rx ry rz
   end
   begin
      id 20
      name RightHand_dum1
      direction 0.000000 0.000000 0.000000
      length 0.000000
      axis 0.0 0.0 90.0 xyz
   end
   begin
      id 21
      name RightHand_dum2
      direction -1.000000 0.000000 0.000000
      length 3.937000
      axis 0.0 0.0 90.0 xyz
   end
   begin
      id 22
      name RightHandThumb1
      direction 0.000000 0.000000 1.000000
      length 3.937000
      axis 0.0 0.0 90.0 xyz
      dof rx rz ry
   end
   begin
      id 23
      name LeftUpLeg
      direction 0.000000 -1.000000 0.000000
      length 15.713025
      axis 0.0 0.0 0.0 xyz
      dof rx ry rz
   end
   begin
      id 24
      name LeftLeg
      direction 0.000000 -1.000000 0.000000
      length 14.435119
      axis 0.0 0.0 0.0 xyz
      dof rx ry rz
   end
   begin
      id 25
      name LeftFoot
      direction 0.000000 -0.258819 0.965926
      length 4.938895
      axis 15.0 0.0 0.0 xyz
      dof rx ry rz
   end
   begin
      id 26
      name LeftToeBase
      direction 0.000000 0.000000 1.000000
      length 2.952750
      axis 0.0 0.0 0.0 xyz
      dof rx ry rz
   end
   begin
      id 27
      name RightUpLeg
      direction 0.000000 -1.000000 0.000000
      length 15.713025
      axis 0.0 0.0 0.0 xyz
      dof rx ry rz
   end
   begin
      id 28
      name RightLeg
      direction 0.000000 -1.000000 0.000000
      length 14.435119
      axis 0.0 0.0 0.0 xyz
      dof rx ry rz
   end
   begin
      id 29
      name RightFoot
      direction 0.000000 -0.258819 0.965926
      length 4.938895
      axis 15.0 0.0 0.0 xyz
      dof rx ry rz
   end
   begin
      id 30
      name RightToeBase
      direction 0.000000 0.000000 1.000000
      length 2.952750
      axis 0.0 0.0 0.0 xyz
      dof rx ry rz
   end
:hierarchy
   begin
      root Spine_dum LeftUpLeg_dum RightUpLeg_dum
      Spine_dum Spine
      LeftUpLeg_dum LeftUpLeg
      RightUpLeg_dum RightUpLeg
      Spine Spine_dum1 Spine_dum2 Spine_dum3
      Spine_dum1 Head
      Spine_dum2 LeftShoulder
      Spine_dum3 RightShoulder
      LeftShoulder LeftArm
      LeftArm LeftForeArm
      LeftForeArm LeftHand
      LeftHand LeftHand_dum1 LeftHand_dum2
      LeftHand_dum1 LeftHandThumb1
      RightShoulder RightArm
      RightArm RightForeArm
      RightForeArm RightHand
      RightHand RightHand_dum1 RightHand_dum2
      RightHand_dum1 RightHandThumb1
      LeftUpLeg LeftLeg
      LeftLeg LeftFoot
      LeftFoot LeftToeBase
      RightUpLeg RightLeg
      RightLeg RightFoot
      RightFoot RightToeBase
   end

# File created by Blade
# Date/Time:  Mon Sep 22 21:09:19 2014
# Frame Rate: 120.000 fps
#------------------------------------------------------
:FULLY-SPECIFIED
:DEGREES
1806
root -3.364986 33.627205 -8.761991 5.099671 31.806614 -37.053078
Spine -31.876822 -13.837840 30.120959
Head 6.768874 -11.720956 8.762606
LeftShoulder 2.894348 35.996550 34.552148
LeftArm 89.776550 26.707501 -40.581183
LeftForeArm -33.353023 -0.000000 80.728722
LeftHand -25.827210 -0.000000 -0.752675
LeftHandThumb1 -26.253704 0.000000 33.147579
RightShoulder -13.878566 -47.520609 -8.708420
RightArm 64.072365 -12.652784 52.099177
RightForeArm 63.634531 -0.000000 81.516559
RightHand 1.393468 -0.000000 25.753845
RightHandThumb1 -24.326973 -0.000000 -32.862282
LeftUpLeg -39.824203 27.118314 13.947949
LeftLeg 24.668696 -0.000000 -0.000000
LeftFoot -19.129673 25.993276 -3.472523
LeftToeBase 1.195529 -0.000000 -0.000000
RightUpLeg -162.642265 -20.667569 27.202432
RightLeg 97.645180 -0.000000 -0.000000
RightFoot 41.452980 -17.377908 5.435175
RightToeBase 43.282034 -0.000000 -0.000000
1807
root -3.348795 33.597591 -8.822560 5.231840 32.003345 -36.863813
Spine -31.732719 -13.706962 29.934547
Head 5.929431 -11.657019 8.717376
LeftShoulder 2.942394 36.083664 34.446285
LeftArm 89.556608 26.827590 -40.733553
LeftForeArm -33.536553 0.000000 80.640772
LeftHand -25.722885 -0.000000 -0.850930
LeftHandThumb1 -26.253704 0.000000 33.147579
RightShoulder -13.643345 -47.513717 -8.994582
RightArm 64.145305 -12.709072 51.787516
RightForeArm 63.933198 -0.000000 81.273372
RightHand 1.541714 0.000000 25.867115
RightHandThumb1 -24.326973 -0.000000 -32.862282
LeftUpLeg -40.235374 27.326471 13.496235
LeftLeg 24.790662 -0.000000 -0.000000
LeftFoot -18.455122 24.510566 -4.678277
LeftToeBase 0.552944 -0.000000 -0.000000
RightUpLeg -162.296520 -20.554178 26.914298
RightLeg 99.347220 -0.000000 -0.000000
RightFoot 41.613413 -17.008039 5.422082
RightToeBase 43.429802 -0.000000 -0.000000
1808
root -3.324639 33.563436 -8.880243 5.376317 32.195492 -36.564776
Spine -31.545243 -13.541749 29.625503
Head 5.048399 -11.672670 8.645841
LeftShoulder 3.034532 36.241745 34.377169
LeftArm 89.416659 26.908221 -40.834441
LeftForeArm -33.399235 -0.000000 80.599742
LeftHand -25.640048 -0.000000 -0.953574
LeftHandThumb1 -26.253704 0.000000 33.147579
RightShoulder -13.520408 -47.565896 -9.189142
RightArm 64.233237 -12.748205 51.424877
RightForeArm 64.107059 -0.000000 81.084448
RightHand 1.924643 -0.000000 25.693534
RightHandThumb1 -24.326973 -0.000000 -32.862282
LeftUpLeg -40.599608 27.501326 12.953117
LeftLeg 25.029279 -0.000000 -0.000000
LeftFoot -18.210952 23.419858 -4.868428
LeftToeBase 1.593229 -0.000000 -0.000000
RightUpLeg -161.968933 -20.407868 26.562455
RightLeg 100.925390 -0.000000 -0.000000
RightFoot 41.624266 -16.855569 5.212506
RightToeBase 43.431628 -0.000000 -0.000000
1809
root -3.292815 33.526199 -8.939537 5.544109 32.370723 -36.229202
Spine -31.363695 -13.356785 29.328788
Head 4.195615 -11.672474 8.488449
LeftShoulder 3.092255 36.394385 34.305062
LeftArm 89.252078 27.012927 -41.000482
LeftForeArm -33.308223 -0.000000 80.566959
LeftHand -25.564077 -0.000000 -1.196887
LeftHandThumb1 -26.253704 0.000000 33.147579
RightShoulder -13.337809 -47.670799 -9.417493
RightArm 64.253540 -12.737198 51.155575
RightForeArm 64.640154 -0.000000 80.942040
RightHand 2.176569 -0.000000 25.798427
RightHandThumb1 -24.326973 -0.000000 -32.862282
LeftUpLeg -40.937121 27.592424 12.427176
LeftLeg 25.359247 -0.000000 -0.000000
LeftFoot -18.067983 22.547319 -4.958974
LeftToeBase 0.626920 -0.000000 -0.000000
RightUpLeg -161.696424 -20.277754 26.284567
RightLeg 102.315330 -0.000000 -0.000000
RightFoot 41.623391 -16.710616 5.079684
RightToeBase 43.387939 -0.000000 -0.000000
1810
root -3.257545 33.486359 -9.000217 5.763392 32.558232 -35.828081
Spine -31.208188 -13.155280 29.000248
Head 3.348564 -11.656881 8.272495
LeftShoulder 3.136132 36.557149 34.186064
LeftArm 89.135260 27.090851 -41.078014
LeftForeArm -33.297196 0.000000 80.584303
LeftHand -25.511106 -0.000000 -1.217581
LeftHandThumb1 -26.253704 0.000000 33.147579
RightShoulder -13.224478 -47.689771 -9.620389
RightArm 64.219065 -12.817269 50.954750
RightForeArm 64.932567 -0.000000 80.837439
RightHand 2.332286 -0.000000 25.877419
RightHandThumb1 -24.326973 -0.000000 -32.862282
LeftUpLeg -41.260051 27.605310 11.857618
LeftLeg 25.653712 -0.000000 -0.000000
LeftFoot -17.946335 21.847653 -4.882542
LeftToeBase 0.605028 -0.000000 -0.000000
RightUpLeg -161.464278 -20.150454 25.963326
RightLeg 103.500960 -0.000000 -0.000000
RightFoot 41.612153 -16.780086 4.945380
RightToeBase 43.468394 -0.000000 -0.000000
1811
root -3.210987 33.446179 -9.061901 6.009788 32.777834 -35.403154
Spine -31.105260 -12.998267 28.738566
Head 2.555021 -11.625608 7.950902
LeftShoulder 3.084844 36.723140 33.993140
LeftArm 89.082043 27.192265 -41.129415
LeftForeArm -33.422638 0.000000 80.554167
LeftHand -25.404858 -0.000000 -1.086655
LeftHandThumb1 -26.253704 0.000000 33.147579
RightShoulder -13.092922 -47.842235 -9.856658
RightArm 64.266968 -12.821119 50.678856
RightForeArm 65.248633 0.000000 80.777505
RightHand 2.730267 -0.000000 25.806585
RightHandThumb1 -24.326973 -0.000000 -32.862282
LeftUpLeg -41.555929 27.480075 11.280706
LeftLeg 25.913021 -0.000000 -0.000000
LeftFoot -17.980151 21.228120 -4.949967
LeftToeBase 1.627218 -0.000000 -0.000000
RightUpLeg -161.300318 -20.079479 25.719627
RightLeg 104.500348 -0.000000 -0.000000
RightFoot 41.614954 -16.835246 4.881560
RightToeBase 43.442872 -0.000000 -0.000000
1812
root -3.158939 33.403447 -9.122487 6.287403 33.053375 -34.867493
Spine -31.034578 -12.892160 28.404605
Head 1.835521 -11.616598 7.505793
LeftShoulder 3.085643 36.860125 33.796987
LeftArm 89.024336 27.288267 -41.196930
LeftForeArm -33.431951 -0.000000 80.552031
LeftHand -25.485939 -0.000000 -1.006644
LeftHandThumb1 -26.253704 0.000000 33.147579
RightShoulder -13.005671 -47.964522 -10.039271
RightArm 64.290724 -12.854240 50.620368
RightForeArm 65.397019 -0.000000 80.659997
RightHand 2.828425 -0.000000 25.870534
RightHandThumb1 -24.326973 -0.000000 -32.862282
LeftUpLeg -41.770949 27.225152 10.641159
LeftLeg 26.103869 -0.000000 -0.000000
LeftFoot -17.945530 20.719489 -4.827408
LeftToeBase 2.127597 -0.000000 -0.000000
RightUpLeg -161.169967 -20.035168 25.442005
RightLeg 105.315015 -0.000000 -0.000000
RightFoot 41.565966 -16.880991 4.622723
RightToeBase 43.402390 -0.000000 -0.000000
1813
root -3.102979 33.365199 -9.187527 6.532205 33.372554 -34.449293
Spine -31.021083 -12.827298 28.250906
Head 1.178089 -11.550823 7.046752
LeftShoulder 3.033831 36.937824 33.562657
LeftArm 88.932534 27.391513 -41.326156
LeftForeArm -33.410118 -0.000000 80.489398
LeftHand -25.365552 -0.000000 -1.366241
LeftHandThumb1 -26.253704 0.000000 33.147579
RightShoulder -12.886412 -48.053474 -10.285365
RightArm 64.285512 -12.902195 50.577985
RightForeArm 65.663381 0.000000 80.528250
RightHand 3.096910 -0.000000 25.749466
RightHandThumb1 -24.326973 -0.000000 -32.862282
LeftUpLeg -42.000707 26.833636 10.135758
LeftLeg 26.298027 -0.000000 -0.000000
LeftFoot -17.696498 20.345063 -4.346732
LeftToeBase 1.167674 -0.000000 -0.000000
RightUpLeg -161.120703 -20.011727 25.377828
RightLeg 105.915577 -0.000000 -0.000000
RightFoot 41.621397 -16.881728 4.418396
RightToeBase 43.400912 -0.000000 -0.000000
1814
root -3.044754 33.330040 -9.252882 6.706528 33.664931 -34.095732
Spine -30.970027 -12.765169 28.173127
Head 0.592955 -11.461717 6.539010
LeftShoulder 2.932080 37.046538 33.286059
LeftArm 88.984321 27.454811 -41.347722
LeftForeArm -33.319105 -0.000000 80.464535
LeftHand -25.501411 0.000000 -1.174719
LeftHandThumb1 -26.253704 0.000000 33.147579
RightShoulder -12.751742 -48.136892 -10.523924
RightArm 64.284244 -12.912030 50.617206
RightForeArm 65.853518 0.000000 80.386101
RightHand 3.192063 0.000000 25.861592
RightHandThumb1 -24.326973 -0.000000 -32.862282
LeftUpLeg -42.129038 26.384198 9.751540
LeftLeg 26.424600 -0.000000 -0.000000
LeftFoot -17.523745 20.022969 -3.931064
LeftToeBase 0.722263 -0.000000 -0.000000
RightUpLeg -161.011500 -20.003969 25.384313
RightLeg 106.299780 -0.000000 -0.000000
RightFoot 41.666841 -16.470728 4.197059
RightToeBase 43.549372 -0.000000 -0.000000
1815
root -2.991609 33.296898 -9.316974 6.818555 33.949213 -33.763510
Spine -30.860138 -12.763392 28.097167
Head 0.035562 -11.294548 6.080409
LeftShoulder 2.810043 37.100560 33.034864
LeftArm 89.008812 27.522675 -41.384118
LeftForeArm -33.269724 -0.000000 80.442306
LeftHand -25.611670 0.000000 -1.106343
LeftHandThumb1 -26.253704 0.000000 33.147579
RightShoulder -12.598583 -48.160527 -10.716264
RightArm 64.230671 -12.928224 50.759222
RightForeArm 66.048538 -0.000000 80.240813
RightHand 3.329725 0.000000 25.887993
RightHandThumb1 -24.326973 -0.000000 -32.862282
LeftUpLeg -42.189731 25.841436 9.499549
LeftLeg 26.634430 -0.000000 -0.000000
LeftFoot -17.399511 19.724961 -3.623910
LeftToeBase 1.206815 -0.000000 -0.000000
RightUpLeg -160.879327 -19.955355 25.412366
RightLeg 106.492952 -0.000000 -0.000000
RightFoot 41.728115 -16.268274 4.060992
RightToeBase 43.620511 -0.000000 -0.000000
1816
root -2.938454 33.266544 -9.382025 6.913058 34.191257 -33.467913
Spine -30.744812 -12.723611 28.053757
Head -0.440828 -11.192761 5.612350
LeftShoulder 2.742061 37.097644 32.811308
LeftArm 88.993508 27.606104 -41.449254
LeftForeArm -33.117940 -0.000000 80.429391
LeftHand -25.649516 -0.000000 -1.025173
LeftHandThumb1 -26.253704 0.000000 33.147579
RightShoulder -12.510805 -48.210783 -10.888155
RightArm 64.298221 -12.943878 50.751102
RightForeArm 66.178705 -0.000000 80.056597
RightHand 3.365231 -0.000000 25.964551
RightHandThumb1 -24.326973 -0.000000 -32.862282
LeftUpLeg -42.222727 25.268997 9.367224
LeftLeg 26.940129 -0.000000 -0.000000
LeftFoot -17.128978 19.297877 -3.189508
LeftToeBase 1.092393 -0.000000 -0.000000
RightUpLeg -160.737017 -19.830054 25.478330
RightLeg 106.473553 -0.000000 -0.000000
RightFoot 41.850009 -16.069338 3.943491
RightToeBase 43.671942 -0.000000 -0.000000
1817
root -2.888497 33.236941 -9.445933 7.031780 34.489579 -33.201242
Spine -30.711686 -12.740381 28.062656
Head -0.841315 -11.069709 5.174346
LeftShoulder 2.665717 37.054754 32.672319
LeftArm 88.939933 27.722600 -41.596521
LeftForeArm -32.894344 0.000000 80.396661
LeftHand -25.736354 -0.000000 -1.192323
LeftHandThumb1 -26.253704 0.000000 33.147579
RightShoulder -12.376363 -48.249736 -11.082603
RightArm 64.311691 -12.965020 50.855553
RightForeArm 66.327690 -0.000000 79.931192
RightHand 3.410334 0.000000 25.991392
RightHandThumb1 -24.326973 -0.000000 -32.862282
LeftUpLeg -42.304474 24.551987 9.349071
LeftLeg 27.348013 -0.000000 -0.000000
LeftFoot -16.775359 18.751659 -2.574012
LeftToeBase 0.626205 -0.000000 -0.000000
RightUpLeg -160.704122 -19.708393 25.601006
RightLeg 106.295377 -0.000000 -0.000000
RightFoot 41.922351 -15.941357 3.995168
RightToeBase 43.767044 -0.000000 -0.000000
